<svg xmlns="http://www.w3.org/2000/svg" viewBox="0 0 617.96 617.96"><title>fsc_circular_logo</title><path d="M806.48,499.78C806.48,669,669.27,806.26,500,806.26S193.52,669,193.52,499.78,330.73,193.3,500,193.3,806.48,330.51,806.48,499.78" transform="translate(-191.02 -190.8)" style="fill:none;stroke:#79cdd0;stroke-miterlimit:10;stroke-width:5px"/><path d="M294,318.74l-7.77,9.31,5,4.15,7.08-8.48,6.55,5.46-7.08,8.48,11.67,9.75-6.45,7.73-29.74-24.83,14.22-17Z" transform="translate(-191.02 -190.8)" style="fill:#f05162"/><path d="M310,291.23l13.57,16.11c.73.86,1.5,1.72,2.33,2.57a9.51,9.51,0,0,0,2.66,2,5.46,5.46,0,0,0,3.06.48,7.18,7.18,0,0,0,3.56-1.83,7.09,7.09,0,0,0,2.39-3.19,5.6,5.6,0,0,0,0-3.09,9.32,9.32,0,0,0-1.46-3c-.7-1-1.41-1.87-2.14-2.74l-13.57-16.11,7.66-6.45,14.47,17.17q5.82,6.92,5.34,12.76t-7.05,11.38q-6.56,5.52-12.42,5t-11.69-7.42l-14.47-17.17Z" transform="translate(-191.02 -190.8)" style="fill:#f05162"/><path d="M356.51,257.85,371.68,284l10.44-6.06,4.29,7.38L367.25,296.4,347.8,262.9Z" transform="translate(-191.02 -190.8)" style="fill:#f05162"/><path d="M394.24,239.57l11.19,28.06,11.21-4.47,3.16,7.93-20.57,8.2-14.34-36Z" transform="translate(-191.02 -190.8)" style="fill:#f05162"/><path d="M477.34,230.13a12.37,12.37,0,0,0-3.49-1.59,8.7,8.7,0,0,0-3.24-.28,5.17,5.17,0,0,0-3.06,1.27,2.86,2.86,0,0,0-.95,2.54,2.38,2.38,0,0,0,.8,1.62,5.55,5.55,0,0,0,1.74,1,13.32,13.32,0,0,0,2.34.59c.86.15,1.71.31,2.56.49a15.55,15.55,0,0,1,7.67,3.56,10.86,10.86,0,0,1,3.07,6.86,14,14,0,0,1-.39,5.47,11.14,11.14,0,0,1-2.45,4.44,13.43,13.43,0,0,1-4.4,3.19,19.5,19.5,0,0,1-6.19,1.65,23.35,23.35,0,0,1-14-2.81l3.38-8.55a17.24,17.24,0,0,0,4.77,2.46,10.8,10.8,0,0,0,4.45.48,5.22,5.22,0,0,0,3.52-1.54,3.43,3.43,0,0,0,.92-2.68,3.64,3.64,0,0,0-.48-1.48,3.28,3.28,0,0,0-1.15-1.05,8.07,8.07,0,0,0-2-.79c-.8-.22-1.77-.46-2.9-.71-1.34-.26-2.65-.57-3.95-.92a12.1,12.1,0,0,1-3.54-1.59,9.16,9.16,0,0,1-2.7-2.83,11,11,0,0,1-1.43-4.62,13.93,13.93,0,0,1,.36-5.29,11.79,11.79,0,0,1,2.21-4.28,12,12,0,0,1,3.9-3,15.86,15.86,0,0,1,5.43-1.54,24.37,24.37,0,0,1,6.07.11,27.16,27.16,0,0,1,6.23,1.65Z" transform="translate(-191.02 -190.8)" style="fill:#f05162"/><path d="M524.77,228.83l-11.95-.57-.31,6.47,11.29.53-.4,8.52-11.29-.53-.32,6.67,12,.56-.4,8.52-22-1,1.83-38.69,22,1Z" transform="translate(-191.02 -190.8)" style="fill:#f05162"/><path d="M570.76,267.72l-12.25-2.67-6.21-16.6L549.12,263l-9.84-2.15L547.54,223l15.31,3.34a15.43,15.43,0,0,1,5.32,2.13,10.7,10.7,0,0,1,4.83,7.6,13.09,13.09,0,0,1-.2,4.69,11.38,11.38,0,0,1-3.61,6.55,10.77,10.77,0,0,1-7,2.3Zm-17.07-25.65,1.85.41a7.41,7.41,0,0,0,4.73-.23,4.74,4.74,0,0,0,1.52-6.93,7.42,7.42,0,0,0-4.21-2.18l-1.86-.4Z" transform="translate(-191.02 -190.8)" style="fill:#f05162"/><path d="M603,238.33l-.57,25.37,17.84-18.06,10.08,4.26-30.13,29.32-7.39-3.12.09-42Z" transform="translate(-191.02 -190.8)" style="fill:#f05162"/><path d="M655.24,265l-20.4,32.93-8.56-5.3,20.4-32.93Z" transform="translate(-191.02 -190.8)" style="fill:#f05162"/><path d="M687,305.57a10.75,10.75,0,0,0-3.89-8.81,10.52,10.52,0,0,0-3.74-2.05,10.05,10.05,0,0,0-7.81.77,11.66,11.66,0,0,0-5.43,6.5,10.29,10.29,0,0,0-.48,4,10.4,10.4,0,0,0,1.09,3.86,10.24,10.24,0,0,0,2.63,3.27,11.66,11.66,0,0,0,9.3,2.41L671,324.69l-1-.38a30.08,30.08,0,0,1-4.08-1.84,20.74,20.74,0,0,1-3.29-2.25,19.92,19.92,0,0,1-4.92-6.08,20.23,20.23,0,0,1-2.23-7.43,21.12,21.12,0,0,1,.74-7.89,20.89,20.89,0,0,1,10.52-12.63A20.2,20.2,0,0,1,682,285.07a20,20,0,0,1,6.92,3.81,21.5,21.5,0,0,1,3.18,3.29,27.53,27.53,0,0,1,2.63,4.18Z" transform="translate(-191.02 -190.8)" style="fill:#f05162"/><path d="M718.34,333.24l-7.82-9.06-4.9,4.23L713,337l-6.46,5.57L699.16,334l-5.06,4.36,7.82,9.07L695.47,353l-14.4-16.69L710.39,311l14.41,16.69Z" transform="translate(-191.02 -190.8)" style="fill:#f05162"/><path d="M500,278.17c-122.39,0-221.61,99.22-221.61,221.61S377.61,721.39,500,721.39s221.61-99.22,221.61-221.61S622.39,278.17,500,278.17ZM487.63,620.36a12,12,0,0,1-12,12H402.38a12,12,0,0,1-12-12V583.64a12,12,0,0,1,12-12h73.25a12,12,0,0,1,12,12Zm-81.39-59.65,11.89-97.2a5.66,5.66,0,0,1,5.65-5.65h42.34a5.66,5.66,0,0,1,5.65,5.65l-11.89,97.2a5.66,5.66,0,0,1-5.65,5.65H411.89A5.66,5.66,0,0,1,406.24,560.71Zm109.52-75.34c0,3.1-2,5.64-4.32,5.64H479.08c-2.38,0-4.32-2.54-4.32-5.64l1.95-21.86c0-3.11,1.94-5.65,4.32-5.65h32.36c2.37,0,4.31,2.54,4.31,5.65ZM533,440.58a12,12,0,0,1-12,12H408.23a12,12,0,0,1-12-12V392.4a12,12,0,0,1,12-12H521a12,12,0,0,1,12,12Zm63.75-16.9a17.14,17.14,0,0,1-17.08,17.08h-42V392.23h42a17.13,17.13,0,0,1,17.08,17.07Zm56-4.79a5.69,5.69,0,0,1-5.69,5.69H601.42V408.4h45.64a5.7,5.7,0,0,1,5.69,5.7Z" transform="translate(-191.02 -190.8)" style="fill:#79cdd0"/><path d="M392.78,726.54a9.91,9.91,0,0,0-7.87-8.84,9.17,9.17,0,0,0-3.54,0,8.83,8.83,0,0,0-3.25,1.37A9.87,9.87,0,0,0,374,725.2a9,9,0,0,0,0,3.55,9.35,9.35,0,0,0,4,5.91A10.54,10.54,0,0,0,386.5,736l-5.75,8.65-.94-.25a28.5,28.5,0,0,1-3.79-1.26,19,19,0,0,1-3.12-1.68,18.27,18.27,0,0,1-7.74-11.19,18.45,18.45,0,0,1-.19-7,17.85,17.85,0,0,1,7.91-11.94,18,18,0,0,1,6.43-2.45,18.63,18.63,0,0,1,13.36,2.9,19.71,19.71,0,0,1,3.15,2.6,26.29,26.29,0,0,1,2.76,3.43Z" transform="translate(-191.02 -190.8)" style="fill:#f05162"/><path d="M422.91,765.34l-10.28-4.43-2.74-15.32-5.14,11.93L396.5,754l13.35-31,12.85,5.53a14.22,14.22,0,0,1,4.31,2.76,9.91,9.91,0,0,1,2.37,3.48,9.51,9.51,0,0,1,.63,3.88,11.4,11.4,0,0,1-.95,4,8.86,8.86,0,0,1-10.66,5.74Zm-10.77-25,1.56.67a6.7,6.7,0,0,0,4.17.63,3.62,3.62,0,0,0,2.53-2.27,3.66,3.66,0,0,0-.08-3.4,6.71,6.71,0,0,0-3.33-2.61l-1.56-.67Z" transform="translate(-191.02 -190.8)" style="fill:#f05162"/><path d="M463.84,748.94l-10.39-2.49-1.32,5.48,9.82,2.36-1.74,7.22-9.81-2.35L449,764.82l10.39,2.49-1.73,7.23L438.56,770l7.88-32.83,19.14,4.6Z" transform="translate(-191.02 -190.8)" style="fill:#f05162"/><path d="M498.11,773l-12.83-.69-2.38,5.75-9.57-.52,15-33,9.8.53,11.34,34.41-9.58-.51Zm-2-6.78-3.43-11.44-4.63,11Z" transform="translate(-191.02 -190.8)" style="fill:#f05162"/><path d="M534.26,750.47l3.15,26.14-8.92,1.07-3.16-26.13-7.33.89-.89-7.38,23.59-2.85.89,7.38Z" transform="translate(-191.02 -190.8)" style="fill:#f05162"/><path d="M560.31,737.34,568.88,770l-8.7,2.28-8.56-32.65Z" transform="translate(-191.02 -190.8)" style="fill:#f05162"/><path d="M579.45,730.93l16,15.31-.77-22.19,8.91-4,.55,36.77-6.53,2.94-27.11-24.81Z" transform="translate(-191.02 -190.8)" style="fill:#f05162"/><path d="M632.36,709.07l-8.74,6.15,3.25,4.61,8.25-5.81,4.28,6.08-8.25,5.81,3.35,4.76,8.74-6.16,4.27,6.08-16.09,11.33L612,714.32,628.08,703Z" transform="translate(-191.02 -190.8)" style="fill:#f05162"/><path d="M500,756.67" transform="translate(-191.02 -190.8)" style="fill:none;stroke:#231f20;stroke-linecap:round;stroke-miterlimit:10;stroke-width:5px"/><path d="M719.05,365.51c27.7,41,37.85,81.06,37.85,134.27A256.51,256.51,0,0,1,652.75,706.35" transform="translate(-191.02 -190.8)" style="fill:none;stroke:#f05162;stroke-linecap:round;stroke-miterlimit:10;stroke-width:5px"/><path d="M500,242.88" transform="translate(-191.02 -190.8)" style="fill:none;stroke:#231f20;stroke-linecap:round;stroke-miterlimit:10;stroke-width:5px"/><path d="M350.41,708.65A256.56,256.56,0,0,1,243.1,499.78c0-52.3,12.83-98.57,39.68-139.16" transform="translate(-191.02 -190.8)" style="fill:none;stroke:#f05162;stroke-linecap:round;stroke-miterlimit:10;stroke-width:5px"/></svg>