<svg xmlns="http://www.w3.org/2000/svg" viewBox="0 0 841.92 379.32"><title>fsc_wordmark_teal</title><text transform="translate(125.55 158.68)" style="font-size:180.93324279785156px;fill:#fff;font-family:Futura-Bold, Futura;font-weight:700">F</text><text transform="translate(0 317.08)" style="font-size:180.93324279785156px;fill:#fff;font-family:Futura-Bold, Futura;font-weight:700">SE</text><text transform="translate(410.95 317.08)" style="font-size:180.93324279785156px;fill:#fff;font-family:Futura-Bold, Futura;font-weight:700">VICE</text><text transform="translate(417.45 158.68)" style="font-size:180.93324279785156px;fill:#fff;font-family:Futura-Bold, Futura;font-weight:700">LL</text><path d="M433.09,547.35H366.76V537.3h66.33c11.2,0,20.31-10.58,20.31-23.58s-9.11-23.58-20.31-23.58H366.76V480.09h66.33c16.74,0,30.36,15.09,30.36,33.63S449.83,547.35,433.09,547.35Z" transform="translate(-83.77 -287.24)" style="fill:#68c7c2"/><path d="M429.58,531.24H366.76V521.18h62.82a7.47,7.47,0,1,0,0-14.93H366.76V496.19h62.82a17.53,17.53,0,1,1,0,35.05Z" transform="translate(-83.77 -287.24)" style="fill:#3dbeb6"/><path d="M916.21,624l-459.61-.84c-18.09,0-22.19-15.69-25.18-27.15-.26-1-.53-2-.79-3l-9.72-35.63,9.7-2.65,9.72,35.64c.28,1,.55,2.06.82,3.11,3.49,13.34,6.15,19.63,15.46,19.63l459.62.84Z" transform="translate(-83.77 -287.24)" style="fill:#3dbeb6"/><path d="M916.21,640.44l-469.1-.84a31.45,31.45,0,0,1-23.29-10.1c-4.37-4.92-5.77-10.78-7-16-.2-.83-.4-1.68-.62-2.52L402.65,558l9.74-2.49,13.55,53.08c.22.89.44,1.77.65,2.66,1.1,4.6,2.05,8.57,4.75,11.61a21.26,21.26,0,0,0,15.77,6.73l469.12.84Z" transform="translate(-83.77 -287.24)" style="fill:#68c7c2"/><path d="M916.21,656.05l-482.84-.84c-8.58,0-17.54-4.54-24-12.14-4.55-5.39-6-11.31-7.41-17l-.45-1.83-16.37-64.94,9.75-2.46,16.37,64.94c.16.63.31,1.26.46,1.89,1.24,5,2.31,9.36,5.34,13,4.46,5.28,10.7,8.57,16.28,8.57l482.85.83Z" transform="translate(-83.77 -287.24)" style="fill:#a5dad7"/><path d="M437.4,561.74H366.76v-10H437.4c18.47,0,33.5-16.56,33.5-36.92s-15-36.91-33.5-36.91H366.76V467.8H437.4c24,0,43.55,21.07,43.55,47S461.42,561.74,437.4,561.74Z" transform="translate(-83.77 -287.24)" style="fill:#a5dad7"/><path d="M336.66,655.53H326.6L327,331.79a22.22,22.22,0,0,1,22.2-22.19H450.83A22.22,22.22,0,0,1,473,331.8V438.14H463V331.8a12.15,12.15,0,0,0-12.14-12.14H349.22a12.15,12.15,0,0,0-12.14,12.14Z" transform="translate(-83.77 -287.24)" style="fill:#a5dad7"/><path d="M352.27,655.53H342.21l.42-310a22.22,22.22,0,0,1,22.19-22.19h70.4a22.23,22.23,0,0,1,22.2,22.2v92.61H447.36V345.53a12.16,12.16,0,0,0-12.14-12.14h-70.4a12.16,12.16,0,0,0-12.14,12.14Z" transform="translate(-83.77 -287.24)" style="fill:#68c7c2"/><path d="M368.71,655.53H358.65l.42-300.5A17.25,17.25,0,0,1,376.3,337.8h47.45A17.25,17.25,0,0,1,441,355v83.11H430.91V355a7.17,7.17,0,0,0-7.16-7.17H376.3a7.17,7.17,0,0,0-7.17,7.17Z" transform="translate(-83.77 -287.24)" style="fill:#3dbeb6"/></svg>