<svg xmlns="http://www.w3.org/2000/svg" viewBox="0 0 837.15 377.17"><title>fsc_wordmark_blue_black</title><text transform="translate(124.84 157.78)" style="font-size:179.90805053710938px;fill:#231f20;font-family:Futura-Bold, Futura;font-weight:700">F</text><text transform="translate(0 315.29)" style="font-size:179.90805053710938px;fill:#231f20;font-family:Futura-Bold, Futura;font-weight:700">SE</text><text transform="translate(408.62 315.29)" style="font-size:179.90805053710938px;fill:#231f20;font-family:Futura-Bold, Futura;font-weight:700">VICE</text><text transform="translate(415.08 157.78)" style="font-size:179.90805053710938px;fill:#231f20;font-family:Futura-Bold, Futura;font-weight:700">LL</text><path d="M434.37,564.16H368.42v-10h65.95c11.13,0,20.19-10.51,20.19-23.44s-9.06-23.44-20.19-23.44H368.42v-10h65.95c16.64,0,30.19,15,30.19,33.44S451,564.16,434.37,564.16Z" transform="translate(-86.69 -305.7)" style="fill:#77cfe6"/><path d="M430.88,548.14H368.42v-10h62.46a7.43,7.43,0,1,0,0-14.85H368.42v-10h62.46a17.43,17.43,0,1,1,0,34.85Z" transform="translate(-86.69 -305.7)" style="fill:#2ac2e5"/><path d="M913.29,640.37l-455.55-.83c-18,0-22.06-15.61-25-27-.26-1-.52-2-.79-3l-9.66-35.43,9.65-2.63,9.66,35.43.81,3.09c3.47,13.27,6.12,19.53,15.37,19.53l455.56.83Z" transform="translate(-86.69 -305.7)" style="fill:#2ac2e5"/><path d="M913.29,656.72l-465-.83a31.3,31.3,0,0,1-23.16-10c-4.34-4.89-5.74-10.71-7-15.85-.2-.84-.4-1.67-.61-2.51L404.1,574.71l9.68-2.48L427.26,625c.22.88.43,1.77.65,2.65,1.09,4.57,2,8.52,4.71,11.54a21.16,21.16,0,0,0,15.69,6.69l465,.83Z" transform="translate(-86.69 -305.7)" style="fill:#77cfe6"/><path d="M913.29,672.24l-478.64-.83c-8.54,0-17.45-4.51-23.82-12.07-4.53-5.36-6-11.25-7.37-16.94-.15-.6-.3-1.21-.46-1.82L386.73,576l9.69-2.44,16.28,64.57c.16.63.31,1.25.46,1.88,1.23,5,2.29,9.3,5.31,12.87,4.43,5.26,10.63,8.52,16.19,8.52l478.65.83Z" transform="translate(-86.69 -305.7)" style="fill:#b1e1f0"/><path d="M438.66,578.47H368.42v-10h70.24c18.36,0,33.3-16.47,33.3-36.7s-14.94-36.71-33.3-36.71H368.42v-10h70.24c23.88,0,43.3,20.95,43.3,46.71S462.54,578.47,438.66,578.47Z" transform="translate(-86.69 -305.7)" style="fill:#b1e1f0"/><path d="M338.48,671.73l-10,0,.42-321.89A22.09,22.09,0,0,1,351,327.76H452a22.09,22.09,0,0,1,22.07,22.07V455.57h-10V349.83A12.08,12.08,0,0,0,452,337.76H351a12.08,12.08,0,0,0-12.07,12.07Z" transform="translate(-86.69 -305.7)" style="fill:#b1e1f0"/><path d="M354,671.73l-10,0,.42-308.24a22.09,22.09,0,0,1,22.07-22.06h70a22.09,22.09,0,0,1,22.07,22.07v92.09h-10V363.48a12.09,12.09,0,0,0-12.07-12.07h-70a12.08,12.08,0,0,0-12.07,12.07Z" transform="translate(-86.69 -305.7)" style="fill:#77cfe6"/><path d="M370.35,671.73l-10,0,.42-298.79A17.14,17.14,0,0,1,377.9,355.8h47.18a17.14,17.14,0,0,1,17.12,17.12v82.65h-10V372.92a7.13,7.13,0,0,0-7.13-7.12H377.9a7.13,7.13,0,0,0-7.13,7.12Z" transform="translate(-86.69 -305.7)" style="fill:#2ac2e5"/></svg>