<svg xmlns="http://www.w3.org/2000/svg" viewBox="0 0 817.73 368.42"><title>fsc_wordmark_orange</title><text transform="translate(121.94 154.12)" style="font-size:175.7345428466797px;fill:#fff;font-family:Futura-Bold, Futura;font-weight:700">F</text><text transform="translate(0 307.97)" style="font-size:175.7345428466797px;fill:#fff;font-family:Futura-Bold, Futura;font-weight:700">SE</text><text transform="translate(399.14 307.97)" style="font-size:175.7345428466797px;fill:#fff;font-family:Futura-Bold, Futura;font-weight:700">VICE</text><text transform="translate(405.45 154.12)" style="font-size:175.7345428466797px;fill:#fff;font-family:Futura-Bold, Futura;font-weight:700">LL</text><path d="M435.89,542.89H371.47v-9.77h64.42c10.87,0,19.72-10.27,19.72-22.9s-8.85-22.9-19.72-22.9H371.47v-9.76h64.42c16.26,0,29.49,14.65,29.49,32.66S452.15,542.89,435.89,542.89Z" transform="translate(-96.28 -290.43)" style="fill:#f7a543"/><path d="M432.48,527.24h-61v-9.77h61a7.26,7.26,0,1,0,0-14.51h-61V493.2h61a17,17,0,1,1,0,34Z" transform="translate(-96.28 -290.43)" style="fill:#f68920"/><path d="M903.7,617.33l-445-.81c-17.56,0-21.54-15.25-24.45-26.38-.26-1-.51-2-.77-2.91l-9.44-34.62,9.43-2.57,9.43,34.62c.27,1,.53,2,.8,3,3.39,13,6,19.07,15,19.07l445,.81Z" transform="translate(-96.28 -290.43)" style="fill:#f68920"/><path d="M903.7,633.3l-454.2-.81a30.53,30.53,0,0,1-22.61-9.82c-4.25-4.77-5.61-10.46-6.81-15.48-.2-.82-.39-1.63-.6-2.45l-13.16-51.55,9.46-2.42,13.16,51.55c.22.87.43,1.73.64,2.59,1.07,4.47,2,8.33,4.61,11.27a20.62,20.62,0,0,0,15.32,6.54l454.21.82Z" transform="translate(-96.28 -290.43)" style="fill:#f7a543"/><path d="M903.7,648.46l-467.54-.81c-8.33,0-17-4.41-23.27-11.79-4.42-5.24-5.83-11-7.2-16.55-.14-.58-.29-1.18-.44-1.77l-15.9-63.07,9.48-2.39,15.89,63.07c.16.61.31,1.23.46,1.83,1.2,4.88,2.23,9.09,5.18,12.58,4.33,5.13,10.39,8.32,15.81,8.32l467.55.82Z" transform="translate(-96.28 -290.43)" style="fill:#fec773"/><path d="M440.08,556.86H371.47V547.1h68.61c17.94,0,32.53-16.09,32.53-35.86S458,475.39,440.08,475.39H371.47v-9.77h68.61c23.32,0,42.3,20.47,42.3,45.62S463.4,556.86,440.08,556.86Z" transform="translate(-96.28 -290.43)" style="fill:#fec773"/><path d="M342.23,648h-9.77l.41-314.43A21.58,21.58,0,0,1,354.43,312h98.69a21.58,21.58,0,0,1,21.56,21.56V436.81h-9.77V333.53a11.8,11.8,0,0,0-11.79-11.79H354.43a11.81,11.81,0,0,0-11.8,11.79Z" transform="translate(-96.28 -290.43)" style="fill:#fec773"/><path d="M357.39,648h-9.77L348,346.86a21.58,21.58,0,0,1,21.56-21.55H438a21.58,21.58,0,0,1,21.56,21.55v89.95h-9.77V346.86A11.8,11.8,0,0,0,438,335.07H369.59a11.8,11.8,0,0,0-11.79,11.79Z" transform="translate(-96.28 -290.43)" style="fill:#f7a543"/><path d="M373.36,648l-9.77,0L364,356.08a16.75,16.75,0,0,1,16.73-16.72h46.09a16.75,16.75,0,0,1,16.73,16.73v80.72h-9.77V356.09a7,7,0,0,0-7-7H380.73a7,7,0,0,0-7,7Z" transform="translate(-96.28 -290.43)" style="fill:#f68920"/></svg>