<svg xmlns="http://www.w3.org/2000/svg" viewBox="0 0 806.06 338.88"><title>fsc_wordmark_pink_black</title><path d="M284.05,338.34H242.29v22.3h38V390h-38v52.38H207.62V309h76.43Z" transform="translate(-78.83 -308.97)" style="fill:#231f20"/><path d="M158.1,498a42.64,42.64,0,0,0-11.33-6.81,30,30,0,0,0-11-2.22q-6.72,0-11,3.19a9.91,9.91,0,0,0-4.24,8.31,8.23,8.23,0,0,0,2.12,5.84,18.42,18.42,0,0,0,5.57,4,46.4,46.4,0,0,0,7.79,2.92c2.89.83,5.75,1.71,8.58,2.66q17,5.65,24.86,15.12t7.87,24.69a48,48,0,0,1-3.45,18.57,38.75,38.75,0,0,1-10.08,14.25,46.74,46.74,0,0,1-16.28,9.2A67.85,67.85,0,0,1,125.72,601q-25.31,0-46.89-15l14.86-28a60.14,60.14,0,0,0,15.4,10.26,37,37,0,0,0,15,3.36q8.49,0,12.65-3.89a12.08,12.08,0,0,0,3.09-14.07,11.39,11.39,0,0,0-3.54-4.07,28.22,28.22,0,0,0-6.45-3.45q-4-1.59-9.65-3.54-6.72-2.11-13.18-4.69a41.29,41.29,0,0,1-11.5-6.81,31.68,31.68,0,0,1-8.14-10.7q-3.09-6.46-3.09-16.37a47.36,47.36,0,0,1,3.27-18,40,40,0,0,1,9.2-13.8,41,41,0,0,1,14.51-8.93,54.92,54.92,0,0,1,19.2-3.19,84,84,0,0,1,20.7,2.75A91.49,91.49,0,0,1,171.9,471Z" transform="translate(-78.83 -308.97)" style="fill:#231f20"/><path d="M275,493.24H233.82v22.29h38.92V544.9H233.82v23H275v29.37h-75.9V463.87H275Z" transform="translate(-78.83 -308.97)" style="fill:#231f20"/><path d="M510.41,463.87l32.2,81.21L575,463.87h37.69l-56.26,133.4h-27.6l-56.09-133.4Z" transform="translate(-78.83 -308.97)" style="fill:#231f20"/><path d="M661.32,463.87v133.4H626.64V463.87Z" transform="translate(-78.83 -308.97)" style="fill:#231f20"/><path d="M785.35,508.46q-12-14.68-29.73-14.69a36.47,36.47,0,0,0-14.42,2.83,35,35,0,0,0-11.41,7.7,35.53,35.53,0,0,0-7.52,11.59,38,38,0,0,0-2.74,14.5,38.49,38.49,0,0,0,2.74,14.69,35.37,35.37,0,0,0,19,19.46,35.2,35.2,0,0,0,14.15,2.83q16.63,0,29.91-14.15v41l-3.54,1.24A101.88,101.88,0,0,1,767,599.66,71.75,71.75,0,0,1,753.32,601a69.61,69.61,0,0,1-48.74-19.91,72.85,72.85,0,0,1-15.48-22.47A72,72,0,0,1,689,502a70.45,70.45,0,0,1,64.49-41.85,73.2,73.2,0,0,1,15.66,1.68,96.94,96.94,0,0,1,16.19,5.22Z" transform="translate(-78.83 -308.97)" style="fill:#231f20"/><path d="M883.18,493.24H842v22.29h38.92V544.9H842v23h41.22v29.37h-75.9V463.87h75.9Z" transform="translate(-78.83 -308.97)" style="fill:#231f20"/><path d="M527.73,309V413h41.58v29.37H493.05V309Z" transform="translate(-78.83 -308.97)" style="fill:#231f20"/><path d="M621.85,309V413h41.58v29.37H587.18V309Z" transform="translate(-78.83 -308.97)" style="fill:#231f20"/><path d="M412.45,541.57H347.6v-9.84h64.85c10.95,0,19.86-10.34,19.86-23.05s-8.91-23.06-19.86-23.06H347.6v-9.83h64.85c16.37,0,29.69,14.75,29.69,32.89S428.82,541.57,412.45,541.57Z" transform="translate(-78.83 -308.97)" style="fill:#f05b92"/><path d="M409,525.81H347.6V516H409a7.31,7.31,0,1,0,0-14.6H347.6v-9.83H409a17.14,17.14,0,1,1,0,34.27Z" transform="translate(-78.83 -308.97)" style="fill:#e9286e"/><path d="M884.88,616.51l-449.44-.82c-17.68,0-21.69-15.34-24.62-26.55-.26-1-.51-2-.77-2.94l-9.5-34.84,9.48-2.59,9.5,34.85c.27,1,.54,2,.81,3,3.41,13.05,6,19.2,15.11,19.2l449.45.82Z" transform="translate(-78.83 -308.97)" style="fill:#e9286e"/><path d="M884.88,632.59l-458.72-.82a30.76,30.76,0,0,1-22.77-9.88c-4.27-4.81-5.64-10.54-6.86-15.59q-.28-1.23-.6-2.46l-13.25-51.91,9.53-2.43,13.25,51.9c.22.87.43,1.74.64,2.61,1.07,4.5,2,8.38,4.64,11.35a20.79,20.79,0,0,0,15.42,6.58l458.74.82Z" transform="translate(-78.83 -308.97)" style="fill:#f05b92"/><path d="M884.88,647.85,412.73,647c-8.39,0-17.16-4.43-23.43-11.86-4.45-5.28-5.87-11.07-7.25-16.66-.14-.6-.29-1.19-.44-1.79l-16-63.5,9.54-2.4,16,63.49c.16.62.31,1.24.46,1.85,1.21,4.91,2.25,9.15,5.22,12.66,4.36,5.17,10.46,8.38,15.92,8.38l472.15.82Z" transform="translate(-78.83 -308.97)" style="fill:#f390b3"/><path d="M416.67,555.63H347.6V545.8h69.07c18.06,0,32.76-16.19,32.76-36.09s-14.7-36.1-32.76-36.1H347.6v-9.83h69.07c23.48,0,42.59,20.6,42.59,45.93S440.15,555.63,416.67,555.63Z" transform="translate(-78.83 -308.97)" style="fill:#f390b3"/><path d="M318.16,647.35l-9.84,0,.41-316.55a21.73,21.73,0,0,1,21.71-21.7H429.8a21.72,21.72,0,0,1,21.7,21.7v104h-9.83v-104a11.88,11.88,0,0,0-11.87-11.87H330.44a11.88,11.88,0,0,0-11.87,11.87Z" transform="translate(-78.83 -308.97)" style="fill:#f390b3"/><path d="M333.42,647.35l-9.83,0L324,344.2a21.73,21.73,0,0,1,21.71-21.7h68.84a21.73,21.73,0,0,1,21.7,21.71v90.56h-9.83V344.21a11.88,11.88,0,0,0-11.87-11.87H345.7a11.88,11.88,0,0,0-11.87,11.87Z" transform="translate(-78.83 -308.97)" style="fill:#f05b92"/><path d="M349.5,647.35l-9.83,0,.41-293.84a16.86,16.86,0,0,1,16.84-16.84h46.4a16.87,16.87,0,0,1,16.84,16.85v81.27h-9.83V353.5a7,7,0,0,0-7-7h-46.4a7,7,0,0,0-7,7Z" transform="translate(-78.83 -308.97)" style="fill:#e9286e"/></svg>