<svg xmlns="http://www.w3.org/2000/svg" viewBox="0 0 871.8 392.78"><title>fsc_wordmark_green_black</title><text transform="translate(130 164.31)" style="font-size:187.3528289794922px;font-family:Futura-Bold, Futura;font-weight:700">F</text><text transform="translate(0 328.33)" style="font-size:187.3528289794922px;font-family:Futura-Bold, Futura;font-weight:700">SE</text><text transform="translate(425.53 328.33)" style="font-size:187.3528289794922px;font-family:Futura-Bold, Futura;font-weight:700">VICE</text><text transform="translate(432.26 164.31)" style="font-size:187.3528289794922px;font-family:Futura-Bold, Futura;font-weight:700">LL</text><path d="M426,555.53H357.29V545.11H426c11.59,0,21-11,21-24.41s-9.44-24.41-21-24.41H357.29V485.87H426c17.33,0,31.44,15.63,31.44,34.83S443.3,555.53,426,555.53Z" transform="translate(-63.9 -286.37)" style="fill:#8cc758"/><path d="M422.34,538.84h-65V528.43h65a7.74,7.74,0,1,0,0-15.47h-65V502.55h65a18.15,18.15,0,1,1,0,36.29Z" transform="translate(-63.9 -286.37)" style="fill:#67bd47"/><path d="M924.71,634.89,450.31,634c-18.73,0-23-16.25-26.07-28.12-.27-1-.54-2.09-.82-3.1l-10.06-36.91,10.05-2.74,10.06,36.91c.28,1.05.56,2.13.85,3.21,3.61,13.83,6.36,20.34,16,20.34l474.41.87Z" transform="translate(-63.9 -286.37)" style="fill:#67bd47"/><path d="M924.71,651.92l-484.23-.87a32.55,32.55,0,0,1-24.11-10.47c-4.52-5.09-6-11.15-7.26-16.5-.21-.87-.41-1.74-.64-2.61l-14-55,10.08-2.58,14,55c.24.92.46,1.84.68,2.76,1.14,4.76,2.12,8.88,4.91,12a22,22,0,0,0,16.34,7l484.24.86Z" transform="translate(-63.9 -286.37)" style="fill:#8cc758"/><path d="M924.71,668.08l-498.45-.87c-8.89,0-18.17-4.7-24.81-12.57-4.71-5.58-6.22-11.71-7.67-17.63-.16-.63-.31-1.26-.47-1.9l-16.95-67.24,10.09-2.55,16.95,67.24c.17.66.33,1.31.49,2,1.28,5.2,2.38,9.69,5.52,13.41,4.62,5.47,11.08,8.87,16.86,8.87l498.46.87Z" transform="translate(-63.9 -286.37)" style="fill:#a9d486"/><path d="M430.44,570.43H357.29V560h73.15c19.12,0,34.68-17.14,34.68-38.22s-15.56-38.22-34.68-38.22H357.29V473.15h73.15c24.86,0,45.09,21.82,45.09,48.64S455.3,570.43,430.44,570.43Z" transform="translate(-63.9 -286.37)" style="fill:#a9d486"/><path d="M326.11,667.54H315.7l.44-335.21a23,23,0,0,1,23-23H444.34a23,23,0,0,1,23,23V442.44H456.91V332.32a12.59,12.59,0,0,0-12.57-12.57H339.12a12.59,12.59,0,0,0-12.57,12.57Z" transform="translate(-63.9 -286.37)" style="fill:#a9d486"/><path d="M342.28,667.54H331.86l.44-321a23,23,0,0,1,23-23h72.9a23,23,0,0,1,23,23v95.9H440.75v-95.9A12.59,12.59,0,0,0,428.18,334h-72.9a12.59,12.59,0,0,0-12.57,12.57Z" transform="translate(-63.9 -286.37)" style="fill:#8cc758"/><path d="M359.31,667.54H348.89l.44-311.16a17.85,17.85,0,0,1,17.83-17.83h49.13a17.85,17.85,0,0,1,17.84,17.83v86.07H423.72V356.37a7.43,7.43,0,0,0-7.43-7.42H367.16a7.43,7.43,0,0,0-7.42,7.42Z" transform="translate(-63.9 -286.37)" style="fill:#67bd47"/></svg>