<svg xmlns="http://www.w3.org/2000/svg" viewBox="0 0 856.58 385.92"><title>fsc_wordmark_purple</title><text transform="translate(127.73 161.44)" style="font-size:184.0818634033203px;fill:#fff;font-family:Futura-Bold, Futura;font-weight:700">F</text><text transform="translate(0 322.6)" style="font-size:184.0818634033203px;fill:#fff;font-family:Futura-Bold, Futura;font-weight:700">SE</text><text transform="translate(418.1 322.6)" style="font-size:184.0818634033203px;fill:#fff;font-family:Futura-Bold, Futura;font-weight:700">VICE</text><text transform="translate(424.71 161.44)" style="font-size:184.0818634033203px;fill:#fff;font-family:Futura-Bold, Futura;font-weight:700">LL</text><path d="M417.51,559.39H350V549.16h67.47c11.4,0,20.67-10.76,20.67-24s-9.27-24-20.67-24H350V491h67.47c17,0,30.9,15.35,30.9,34.22S434.55,559.39,417.51,559.39Z" transform="translate(-62.12 -294.75)" style="fill:#b876b1"/><path d="M414,543H350V532.76H414a7.6,7.6,0,1,0,0-15.19H350V507.34H414A17.83,17.83,0,1,1,414,543Z" transform="translate(-62.12 -294.75)" style="fill:#8752a1"/><path d="M909.05,637.37l-467.62-.86c-18.4,0-22.57-16-25.61-27.62-.27-1-.54-2.06-.81-3.06l-9.88-36.25,9.87-2.7,9.88,36.26c.28,1,.56,2.1.84,3.16,3.55,13.58,6.25,20,15.72,20l467.62.85Z" transform="translate(-62.12 -294.75)" style="fill:#8752a1"/><path d="M909.05,654.1l-477.27-.86A32,32,0,0,1,408.09,643c-4.45-5-5.88-11-7.14-16.22-.2-.85-.4-1.71-.62-2.56l-13.79-54,9.92-2.53,13.78,54c.23.9.45,1.81.66,2.71,1.12,4.68,2.09,8.72,4.83,11.8a21.66,21.66,0,0,0,16,6.85l477.28.86Z" transform="translate(-62.12 -294.75)" style="fill:#b876b1"/><path d="M909.05,670l-491.25-.86c-8.73,0-17.84-4.61-24.37-12.34-4.63-5.49-6.11-11.51-7.54-17.34-.16-.61-.31-1.23-.47-1.86l-16.65-66.06,9.92-2.51,16.66,66.07c.16.65.32,1.29.47,1.92,1.26,5.11,2.34,9.52,5.43,13.18,4.54,5.37,10.88,8.71,16.56,8.71l491.25.86Z" transform="translate(-62.12 -294.75)" style="fill:#c9a4cd"/><path d="M421.91,574H350V563.8h71.87C440.7,563.8,456,547,456,526.24s-15.28-37.55-34.07-37.55H350V478.45h71.87c24.43,0,44.3,21.44,44.3,47.79S446.34,574,421.91,574Z" transform="translate(-62.12 -294.75)" style="fill:#c9a4cd"/><path d="M319.41,669.45H309.17l.43-329.36a22.61,22.61,0,0,1,22.58-22.58H435.56a22.61,22.61,0,0,1,22.59,22.58V448.27H447.92V340.08a12.37,12.37,0,0,0-12.36-12.35H332.18a12.36,12.36,0,0,0-12.35,12.35Z" transform="translate(-62.12 -294.75)" style="fill:#c9a4cd"/><path d="M335.29,669.45H325.05l.43-315.39a22.61,22.61,0,0,1,22.58-22.58h71.62a22.61,22.61,0,0,1,22.59,22.58v94.22H432V354.05a12.37,12.37,0,0,0-12.36-12.35H348.06a12.36,12.36,0,0,0-12.35,12.35Z" transform="translate(-62.12 -294.75)" style="fill:#b876b1"/><path d="M352,669.45H341.79l.42-305.73a17.54,17.54,0,0,1,17.53-17.52H408a17.55,17.55,0,0,1,17.53,17.52v84.56H415.3V363.71a7.3,7.3,0,0,0-7.29-7.29H359.74a7.31,7.31,0,0,0-7.3,7.29Z" transform="translate(-62.12 -294.75)" style="fill:#8752a1"/></svg>